<?xml version="1.0" encoding="UTF-8"?>
<!DOCTYPE svg PUBLIC "-//W3C//DTD SVG 1.0//EN" "http://www.w3.org/TR/2001/REC-SVG-20010904/DTD/svg10.dtd">
<!-- Creator: CorelDRAW -->
<svg xmlns="http://www.w3.org/2000/svg" xml:space="preserve" width="60in" height="48in" version="1.0" style="shape-rendering:geometricPrecision; text-rendering:geometricPrecision; image-rendering:optimizeQuality; fill-rule:evenodd; clip-rule:evenodd"
viewBox="0 0 60000 48000"
 xmlns:xlink="http://www.w3.org/1999/xlink"
 xmlns:xodm="http://www.corel.com/coreldraw/odm/2003">
 <defs>
  <style type="text/css">
   <![CDATA[
    .str2 {stroke:black;stroke-width:83.33;stroke-miterlimit:2.61313}
    .str1 {stroke:#373435;stroke-width:13.89;stroke-miterlimit:2.61313}
    .str0 {stroke:black;stroke-width:300.59;stroke-miterlimit:2.61313}
    .fil0 {fill:none}
    .fil6 {fill:#FDEAED}
    .fil7 {fill:#F6CBC9}
    .fil5 {fill:#292929}
    .fil3 {fill:black}
    .fil8 {fill:black}
    .fil2 {fill:#040809}
    .fil1 {fill:#FFCECA}
    .fil4 {fill:#FFEBED}
   ]]>
  </style>
 </defs>
 <g id="Layer_x0020_1">
  <metadata id="CorelCorpID_0Corel-Layer"/>
  <g id="_1842892921136">
   <g>
    <path class="fil0 str0" d="M8172.06 6052.98c35.45,720.76 -194.81,1132.29 -588.18,1461.78 -466.91,391.1 -1055.69,332.62 -1736.83,332.62 -731.22,0 -1186.16,78.65 -1715.14,-324.59 -452.93,-345.27 -604.25,-769.66 -609.19,-1486.28 362.46,-151.25 335.4,-510.86 17.91,-654.65 -52.02,-234.98 -19.09,-817.9 43.02,-1043.16 81.61,-296.02 252.31,-548.76 423.24,-705.45 507.69,-465.5 960.9,-432.35 1809.64,-432.35 882.11,0 1272.95,-70.58 1844.56,397.15 528.77,432.68 526.17,1087.11 513.71,1753.33 -5.87,5.44 -15.89,4.54 -18.95,14.81 -2.99,10.16 -14.7,11.49 -18.88,14.52 -119.55,87.41 -205.22,127.91 -211.2,308.41 -7.64,228.68 102.57,257.14 246.3,363.86zm-1108.11 -3107.38c-183.32,-1.91 -367.21,-36.35 -576.29,-35.92 -465.43,1.01 -1492.33,-32.57 -1842.65,49.76 -638.55,150.1 -1110.2,624.93 -1309.09,1188.5 -137.89,390.74 -143,1894.49 -89.64,2373.68 77.1,692.34 521.81,1201.15 1050.69,1447.62 556.04,259.12 1625.54,189.52 2313.91,174.74 768.8,-16.5 1293.27,-400.94 1593.22,-893.09 367.96,-603.85 266.04,-1446.07 265.03,-2235.08 -0.5,-403.49 -31.02,-758.16 -181.48,-1065.49 -183.21,-374.13 -348.58,-459.34 -578.85,-703.76l304.09 -143.15c-33.33,-109.31 -153.99,-311.4 -213.54,-369.91l-364 232.93 43.13 -429.54 -433.65 -1.44 19.13 410.16z"/>
    <path id="_1" class="fil1" d="M8172.06 6052.98c35.45,720.76 -194.81,1132.29 -588.18,1461.78 -466.91,391.1 -1055.69,332.62 -1736.83,332.62 -731.22,0 -1186.16,78.65 -1715.14,-324.59 -452.93,-345.27 -604.25,-769.66 -609.19,-1486.28 362.46,-151.25 335.4,-510.86 17.91,-654.65 -52.02,-234.98 -19.09,-817.9 43.02,-1043.16 81.61,-296.02 252.31,-548.76 423.24,-705.45 507.69,-465.5 960.9,-432.35 1809.64,-432.35 882.11,0 1272.95,-70.58 1844.56,397.15 528.77,432.68 526.17,1087.11 513.71,1753.33 -5.87,5.44 -15.89,4.54 -18.95,14.81 -2.99,10.16 -14.7,11.49 -18.88,14.52 -119.55,87.41 -205.22,127.91 -211.2,308.41 -7.64,228.68 102.57,257.14 246.3,363.86zm-1108.11 -3107.38c-183.32,-1.91 -367.21,-36.35 -576.29,-35.92 -465.43,1.01 -1492.33,-32.57 -1842.65,49.76 -638.55,150.1 -1110.2,624.93 -1309.09,1188.5 -137.89,390.74 -143,1894.49 -89.64,2373.68 77.1,692.34 521.81,1201.15 1050.69,1447.62 556.04,259.12 1625.54,189.52 2313.91,174.74 768.8,-16.5 1293.27,-400.94 1593.22,-893.09 367.96,-603.85 266.04,-1446.07 265.03,-2235.08 -0.5,-403.49 -31.02,-758.16 -181.48,-1065.49 -183.21,-374.13 -348.58,-459.34 -578.85,-703.76l304.09 -143.15c-33.33,-109.31 -153.99,-311.4 -213.54,-369.91l-364 232.93 43.13 -429.54 -433.65 -1.44 19.13 410.16z"/>
   </g>
   <path class="fil2" d="M6559.2 5444.33c-551.9,229.4 -203.6,978.27 307.62,776.65 475.69,-187.64 224.82,-997.98 -307.62,-776.65z"/>
   <path class="fil2" d="M4576.44 5904.43l203.02 -4.04c71.59,-136.84 73.93,-258.62 276.85,-268.63 219.46,-10.81 233.43,125.28 302.65,265.11l202.52 9.26c-34.12,-662.9 -929.84,-667.44 -985.04,-1.69z"/>
   <path class="fil3 str1" d="M4882 7315.56c-403.09,2.41 -722.35,-306.5 -828.89,-626.15 -82.83,-248.46 -44.5,-1128.51 -45.43,-1460.05 -3.86,-1336.29 941.48,-1143.35 1839.37,-1143.35 905.41,0 1851.11,-200.11 1848.19,1143.32 -1.76,816.13 225.72,2020.13 -887.58,2087.07 5.3,-239.85 17.37,-540.65 -264.85,-450.69 -188.47,114.25 -90.18,234.08 -134.31,453.57l-356.58 -6.3c-23.96,-228.17 49.9,-340.77 -134.79,-451.99 -275.84,-63.27 -259.37,222.08 -256.85,455.19l-379.03 0.87c5.62,-230.59 29.65,-527.72 -267.12,-454.15 -184.47,118.61 -95.59,230.33 -132.12,452.67zm3290.05 -1262.57c-143.72,-106.72 -253.93,-135.18 -246.3,-363.86 5.98,-180.5 91.66,-221 211.2,-308.41 4.18,-3.03 15.89,-4.36 18.88,-14.52 3.06,-10.27 13.08,-9.37 18.95,-14.81 12.46,-666.22 15.06,-1320.65 -513.71,-1753.33 -571.6,-467.73 -962.45,-397.15 -1844.56,-397.15 -848.74,0 -1301.95,-33.15 -1809.64,432.35 -170.92,156.69 -341.63,409.44 -423.24,705.45 -62.11,225.26 -95.04,808.17 -43.02,1043.16 317.49,143.79 344.55,503.4 -17.91,654.65 4.94,716.62 156.26,1141.01 609.19,1486.28 528.98,403.24 983.92,324.59 1715.14,324.59 681.13,0 1269.92,58.48 1736.83,-332.62 393.37,-329.49 623.63,-741.02 588.18,-1461.78z"/>
   <path class="fil4 str2" d="M6559.2 5444.33c532.44,-221.33 783.31,589.01 307.62,776.65 -511.22,201.62 -859.52,-547.25 -307.62,-776.65zm-1982.76 460.09c55.2,-665.75 950.92,-661.21 985.04,1.69l-202.52 -9.26c-69.21,-139.83 -83.19,-275.91 -302.65,-265.11 -202.92,10.02 -205.26,131.8 -276.85,268.63l-203.02 4.04zm305.56 1411.13c36.54,-222.34 -52.35,-334.07 132.12,-452.67 296.77,-73.57 272.74,223.56 267.12,454.15l379.03 -0.87c-2.52,-233.11 -18.99,-518.46 256.85,-455.19 184.69,111.22 110.83,223.81 134.79,451.99l356.58 6.3c44.13,-219.49 -54.15,-339.32 134.31,-453.57 282.22,-89.96 270.15,210.84 264.85,450.69 1113.31,-66.94 885.82,-1270.93 887.58,-2087.07 2.92,-1343.43 -942.78,-1143.32 -1848.19,-1143.32 -897.89,0 -1843.22,-192.94 -1839.37,1143.35 0.93,331.54 -37.4,1211.59 45.43,1460.05 106.54,319.65 425.8,628.57 828.89,626.15z"/>
  </g>
  <g id="_1842892921088">
   <path class="fil5" d="M9365.46 13080.03c-109.28,-3.44 -205.67,-35.65 -291.07,-73.16 -94.8,-41.63 -144.67,-91.79 -213.78,-146.13 -34.72,-27.3 -61.7,-65.82 -88.57,-94.72 -12.95,-13.93 -26.52,-34.3 -38.94,-51.13 -62.5,-84.75 -118.02,-197.61 -137.72,-312.19 -30.43,-176.96 -33.7,-503.13 -32.6,-689.83 1.39,-237.78 5.22,-475.64 8.48,-713.4 3.18,-231.79 31.12,-421.86 113.73,-610.16 38.92,-88.7 86.74,-147.42 150.52,-212.77 126.33,-129.44 320.04,-197.6 499.95,-223.33 369.27,-52.8 690.45,-12.85 1049.72,-17.85 237.39,-3.3 479.81,-13.7 716.67,-9.19 212.16,4.03 442.9,32.88 610.78,112.69 386.89,183.94 451.18,574.16 460.78,983.9 2.78,118.89 4.67,237.96 8.36,356.64 21.17,681.11 91.93,1623.79 -810.41,1698.65 0.77,-107.97 4.03,-228.62 -30.77,-323.93 -31.72,-86.85 -93.15,-148.13 -211.97,-137.76 -59.88,5.23 -91.42,20.02 -127.72,48.93 -144.93,115.42 -86.65,245.49 -106.8,418.65l-280.8 -5.86c-9.91,-191.04 26.33,-310.16 -112.51,-417.49 -40.58,-31.37 -62.73,-41.53 -128.87,-43.11 -179.87,-4.29 -220.48,155.14 -230.78,295.39 -3.61,49.19 3.05,126.61 -3.83,168.64l-292.01 1.02c-2.76,-109.45 10.12,-228 -28.55,-324.58 -38.72,-96.73 -103.46,-145.55 -211.52,-140.8 -24.68,1.09 -54.19,5.73 -77.51,11.68 -17.51,4.47 -40.22,22.98 -53.43,33.13 -135.7,104.29 -98.07,239.61 -108.83,418.06zm673.06 -4078.83c-422.97,-0.83 -826.22,6.82 -1162.11,182.98 -96.94,50.84 -222.44,134.09 -301.1,205.51 -20.68,18.78 -109.81,98.85 -129.2,124.07 -18.56,24.16 -47.18,51.95 -76.4,90.24 -12.78,16.74 -22.94,30.72 -35.45,47.89 -152.92,209.91 -247.8,453.97 -277.78,729.24 -22.51,206.75 -35.56,430.01 -22.61,640.92 3.17,51.51 9.18,101.53 17.57,150.88 5.24,30.81 18.93,27.63 43.13,40.43 81.7,43.23 165.72,120.49 195.05,225.14 29.22,104.22 -6.48,199.94 -56.5,262.28 -36.09,44.97 -120.93,115.46 -196.15,137.45 3.43,397.98 42.83,765.46 239.82,1096.41 66.19,111.19 85.1,115.06 142.37,190.94l141.24 138.65c39.24,34.26 111.37,88.93 154.31,119.04 316.8,222.17 640.28,283.78 1047.14,283.97 250.08,0.12 502.16,-6.89 750,-4.79 467.72,3.97 1013.06,30.17 1421.3,-211.69 106.53,-63.11 145.49,-98.69 235,-175.02 31.67,-27 114.92,-111.24 143.69,-142.79l90.42 -113.03c103.22,-139.11 189.58,-305.35 237.54,-495.54 48.38,-191.87 67.82,-381.89 61.52,-591.53 -2.78,-92.48 9.7,-67.18 -51.87,-110.9 -32.81,-23.3 -64,-43.83 -95.08,-68.21 -57.81,-45.37 -101.65,-115.37 -101.51,-224.22 0.17,-113.2 15.44,-170.43 81.03,-237.96 18.46,-19 99.66,-80.82 126.47,-96.92 30.95,-18.59 10.74,-18.44 41.9,-31.31 4.75,-401.86 16.68,-845.84 -123.68,-1210.66 -113.97,-296.21 -267.89,-460.28 -470.2,-612.96 -418.55,-315.89 -757,-343.85 -1286.53,-341.06l-783.33 2.55z"/>
   <path class="fil6" d="M10760.58 11682.86c-18.59,-147.33 45.2,-273.96 116.34,-344.83 130.07,-129.58 325.3,-203.07 507.89,-144.74 165.61,52.91 275.01,226.46 293.93,402.91 30.4,283.6 -162.91,477.06 -414.65,505.54 -152.12,17.21 -266.73,-45.7 -347.57,-113.62 -10.94,-9.19 -16.76,-18.13 -27.84,-28.68 -7.17,-6.83 -19.21,-20.87 -26.44,-30.24 -55.43,-71.89 -89.41,-149.21 -101.67,-246.34zm-1708.64 72.02c3.98,-130.7 42.24,-270.63 120.2,-371.71l65.73 -74.22c6.53,-6.38 12.85,-9.5 20.65,-16.11 30.64,-25.95 64.66,-48.59 105.43,-67.87 151.94,-71.82 306.54,-66.89 457.95,-2.15 126.24,53.99 216.08,170.27 264.38,295.53 27.78,72.04 36.02,155.39 40.17,239.28l-273.31 -12.74c-30.4,-56.86 -53.99,-130.75 -86.24,-180.47 -19.44,-29.97 -33.31,-50.02 -67.56,-65.63 -58.19,-26.52 -167.41,-23.28 -224.7,6.71 -21.24,11.12 -22.72,15.23 -37.42,29.38 -23.15,22.29 -97.15,180.15 -110.77,214.38l-274.53 5.61zm313.53 1325.15c10.76,-178.44 -26.88,-313.77 108.83,-418.06 13.21,-10.15 35.92,-28.66 53.43,-33.13 23.32,-5.95 52.83,-10.59 77.51,-11.68 108.06,-4.76 172.8,44.07 211.52,140.8 38.67,96.58 25.78,215.13 28.55,324.58l292.01 -1.02c6.88,-42.03 0.22,-119.45 3.83,-168.64 10.29,-140.25 50.91,-299.69 230.78,-295.39 66.14,1.57 88.29,11.73 128.87,43.11 138.84,107.33 102.6,226.45 112.51,417.49l280.8 5.86c20.16,-173.17 -38.13,-303.23 106.8,-418.65 36.3,-28.91 67.83,-43.7 127.72,-48.93 118.82,-10.38 180.26,50.9 211.97,137.76 34.8,95.31 31.54,215.96 30.77,323.93 902.33,-74.86 831.57,-1017.54 810.41,-1698.65 -3.69,-118.67 -5.58,-237.74 -8.36,-356.64 -9.59,-409.74 -73.89,-799.96 -460.78,-983.9 -167.88,-79.81 -398.62,-108.66 -610.78,-112.69 -236.85,-4.5 -479.28,5.89 -716.67,9.19 -359.28,5 -680.45,-34.94 -1049.72,17.85 -179.92,25.72 -373.62,93.89 -499.95,223.33 -63.79,65.35 -111.6,124.07 -150.52,212.77 -82.61,188.3 -110.56,378.37 -113.73,610.16 -3.26,237.76 -7.09,475.61 -8.48,713.4 -1.09,186.7 2.17,512.87 32.6,689.83 19.7,114.58 75.22,227.44 137.72,312.19 12.42,16.83 25.99,37.2 38.94,51.13 26.87,28.91 53.85,67.42 88.57,94.72 69.11,54.34 118.98,104.5 213.78,146.13 85.41,37.52 181.8,69.72 291.07,73.16z"/>
   <path class="fil7" d="M10038.52 9001.2l783.33 -2.55c529.54,-2.8 867.98,25.17 1286.53,341.06 202.31,152.69 356.23,316.76 470.2,612.96 140.36,364.82 128.43,808.8 123.68,1210.66 -31.16,12.87 -10.95,12.73 -41.9,31.31 -26.81,16.1 -108.01,77.91 -126.47,96.92 -65.59,67.54 -80.87,124.76 -81.03,237.96 -0.15,108.85 43.7,178.85 101.51,224.22 31.07,24.39 62.27,44.91 95.08,68.21 61.57,43.72 49.09,18.42 51.87,110.9 6.3,209.64 -13.14,399.65 -61.52,591.53 -47.95,190.19 -134.31,356.44 -237.54,495.54l-90.42 113.03c-28.77,31.55 -112.02,115.78 -143.69,142.79 -89.52,76.34 -128.48,111.91 -235,175.02 -408.24,241.86 -953.58,215.66 -1421.3,211.69 -247.84,-2.1 -499.92,4.91 -750,4.79 -406.85,-0.2 -730.34,-61.8 -1047.14,-283.97 -42.94,-30.11 -115.07,-84.78 -154.31,-119.04l-141.24 -138.65c-57.27,-75.87 -76.18,-79.74 -142.37,-190.94 -196.99,-330.94 -236.39,-698.42 -239.82,-1096.41 75.23,-21.98 160.07,-92.48 196.15,-137.45 50.02,-62.34 85.72,-158.07 56.5,-262.28 -29.33,-104.65 -113.35,-181.91 -195.05,-225.14 -24.19,-12.8 -37.89,-9.62 -43.13,-40.43 -8.39,-49.35 -14.41,-99.37 -17.57,-150.88 -12.96,-210.91 0.09,-434.17 22.61,-640.92 29.97,-275.27 124.86,-519.33 277.78,-729.24 12.51,-17.17 22.67,-31.15 35.45,-47.89 29.22,-38.29 57.83,-66.08 76.4,-90.24 19.39,-25.22 108.52,-105.3 129.2,-124.07 78.67,-71.42 204.16,-154.67 301.1,-205.51 335.89,-176.17 739.14,-183.81 1162.11,-182.98zm1917.42 -228.72c4.89,-70.03 13.91,-144 21.37,-214.24 3.42,-32.17 23.16,-195.25 19.38,-213.36l-430.83 -1.45 18.94 409.2c-98.6,1.33 -199.52,-12.01 -296.42,-19.85 -100.46,-8.13 -194.57,-14.63 -296.52,-15.35 -426.7,-3 -1456.67,-30.71 -1825.59,49.66 -284.3,61.94 -518.19,193.51 -735.24,364.89 -30.28,23.91 -55.01,48.93 -83.44,73.24l-190.31 206.37c-11.24,14.15 -21.89,28.22 -33.35,43.3 -103.73,136.45 -216.11,339.22 -270.78,512.68 -52.33,166.04 -66.34,363.3 -83.19,546.33 -33.76,366.85 -35.88,847.24 -31.89,1218.95 5.13,478.31 16.96,892.96 263.89,1306.55 95.94,160.71 215.62,311.86 354.78,432.01 100.74,86.98 149.7,125.56 268.89,201.08 382.92,242.66 804.22,266.57 1276.14,293.07 203.11,11.41 419.46,4.3 623.43,1.37 203.77,-2.92 409.41,-9.73 613.19,-16.32 482.2,-15.59 828.72,-146.96 1163.9,-407.28l85.02 -71.82 153.25 -160.02c73.22,-86.78 137.55,-176.09 195.96,-274.02 349.85,-586.55 259.09,-1483.95 252.66,-2234.64 -4.82,-563.28 -58.22,-941.34 -373.41,-1353.84 -40.07,-52.44 -139.07,-155.17 -190.86,-202.52l-59.06 -57.55c-7.43,-7.21 -13.16,-12.12 -20.84,-19.21l-115.26 -116.11 302.13 -144.11c-14.08,-60.68 -64.07,-145.5 -92.59,-197.38 -24.07,-43.78 -56.31,-91.3 -85.57,-131.16 -11.62,-15.83 -22.49,-24.02 -30.96,-38.85 -22.44,6.79 -341.88,221.35 -366.79,230.35z"/>
   <path class="fil5" d="M11955.94 8772.49c24.91,-9 344.35,-223.56 366.79,-230.35 8.48,14.83 19.35,23.03 30.96,38.85 29.25,39.86 61.5,87.37 85.57,131.16 28.52,51.88 78.51,136.7 92.59,197.38l-302.13 144.11 115.26 116.11c7.69,7.09 13.41,12 20.84,19.21l59.06 57.55c51.79,47.35 150.79,150.07 190.86,202.52 315.19,412.5 368.59,790.57 373.41,1353.84 6.43,750.69 97.19,1648.09 -252.66,2234.64 -58.41,97.93 -122.74,187.24 -195.96,274.02l-153.25 160.02 -85.02 71.82c-335.18,260.31 -681.69,391.69 -1163.9,407.28 -203.78,6.59 -409.41,13.4 -613.19,16.32 -203.97,2.93 -420.31,10.04 -623.43,-1.37 -471.92,-26.51 -893.22,-50.41 -1276.14,-293.07 -119.19,-75.53 -168.15,-114.1 -268.89,-201.08 -139.16,-120.15 -258.84,-271.3 -354.78,-432.01 -246.92,-413.59 -258.75,-828.24 -263.89,-1306.55 -3.99,-371.71 -1.87,-852.1 31.89,-1218.95 16.84,-183.03 30.85,-380.29 83.19,-546.33 54.67,-173.46 167.06,-376.23 270.78,-512.68 11.46,-15.08 22.12,-29.15 33.35,-43.3l190.31 -206.37c28.43,-24.31 53.15,-49.33 83.44,-73.24 217.05,-171.37 450.93,-302.95 735.24,-364.89 368.93,-80.37 1398.89,-52.66 1825.59,-49.66 101.95,0.72 196.05,7.22 296.52,15.35 96.9,7.84 197.82,21.19 296.42,19.85l-18.94 -409.2 430.83 1.45c3.78,18.11 -15.96,181.19 -19.38,213.36 -7.45,70.24 -16.48,144.2 -21.37,214.24zm-4370.76 2969.83l0 -23.81 3.35 -522.3c1.41,-26.09 -0.02,-56.75 -0.02,-83.35 -0,-30.79 3.52,-53.36 3.41,-79.92 -0.11,-26.76 -1.95,-56.38 1.85,-81.48 3.91,-25.82 -1.09,-54.7 2.81,-80.52 3.9,-25.74 -0.04,-53.74 3.85,-79.48l4.75 -78.58c10.97,-213.16 28.03,-417.16 60.43,-609.58 26.85,-159.46 97.57,-346.92 178.5,-491.5 52.5,-93.79 158.31,-261.78 238.57,-348.09 13.5,-14.52 26.45,-29.37 38.66,-44.67l83 -87c77.41,-77.54 163.54,-143.46 251.34,-208.66 123.31,-91.57 264.17,-162.32 407.11,-219.55 105.98,-42.43 212.12,-72.41 324.88,-95.13 74.23,-14.96 147.11,-16.18 222.75,-27.25l117.98 -8.69c14.13,-0.42 29.44,0.88 43.46,0.13 15.48,-0.84 20.56,-3.51 39.91,-3.43l200.07 -6.59c113.39,0.01 216.14,-3.33 330,-3.33l250.02 -0.02c28.74,-0.15 46.09,3.4 76.64,3.36l290.13 -0.13c17.97,0.22 19.64,3.07 36.43,3.57 54.43,1.63 111.99,-0.11 166.78,-0.11 106.67,0 135.97,1.65 240,6.67 49.24,2.38 100.32,11.22 149.98,13.35 23.23,1 50.08,6.65 73.36,6.65 0,-29.89 -12.36,-225.31 -9.77,-239.77 2.61,-14.49 96.74,-105.75 117.28,-126.05 8.56,-8.46 22.09,-34.18 35.82,-34.18l426.67 0c10.08,0 46.14,47.59 55.77,57.56l52.31 57.7c9.26,11.99 18.17,17.89 27.61,29.05 38.3,45.27 7.65,47.26 7.65,139.02 22,-11.64 36.28,-22.94 57.73,-35.6 24.96,-14.73 32.25,-28.77 62.73,-25.13 29.88,3.56 54.92,4.56 85.26,8.35 11.83,1.48 71.61,6.28 80.09,9.9 12.16,5.19 2.74,0.02 11.99,11.34l70.2 89.8c49.49,74.7 99.53,152.83 133.92,236.08 5.49,13.3 9.73,21.15 14.31,32.35 26.09,63.79 27.85,51.11 8.5,97.65 -18.4,44.26 -38.41,82.87 -56.13,127.21 -11.46,28.7 -26.47,26.87 -53.06,40.28 -17.87,9.02 -43.25,23.35 -62.23,27.77 5.09,19.04 36.47,39.9 50.81,52.53 17.15,15.1 33.48,33.43 50.02,49.97 18.01,18.02 33.86,33.54 51.73,51.6 9.83,9.93 13.02,16.67 23.22,26.78l36.55 40.12c125.23,147.82 219.12,312.48 292.43,494.23l51.23 152.1c80.56,297.21 94,582.76 94,922.67 0,134.22 6.67,266.76 6.67,400 0,37.94 3.42,64.44 3.33,99.99 -0.07,33.33 0.07,66.68 -0.01,100.01 -0.08,35.55 3.34,62.06 3.34,100 -0,479.74 -26.65,916.17 -169.01,1280.99l-38.81 91.19c-4.96,10.24 -7.57,18.59 -12.13,27.86l-156.06 263.94c-50.79,74.54 -108.82,144.13 -169.87,210.13 -7.89,8.54 -9.65,13.1 -18.23,21.78 -42.05,42.5 -83.67,85.37 -128.43,124.91 -91.46,80.8 -190.78,151.35 -295.58,214.41 -86.56,52.09 -186.81,102.36 -282.39,137.61 -130.13,48 -251.63,85.35 -394.26,109.07 -64,10.65 -161.71,27.92 -225.24,28.09 -19.46,0.05 -22.8,2.93 -39.89,3.44 -12.85,0.38 -27.26,-0.98 -39.94,0.07l-163.5 6.49c-58.3,-0.07 -104.84,3.46 -163.34,3.33l-326.65 10.02c-114.51,-0.43 -218.39,3.32 -333.34,3.32 -314.65,0 -598.79,-13.02 -902.37,-57.63 -260.97,-38.35 -492.66,-111.55 -716.21,-243.78 -57.89,-34.24 -189.96,-120.41 -237.23,-162.77 -28.49,-25.53 -59.82,-46.44 -86.75,-73.25 -14.73,-14.66 -27,-23.7 -41.61,-38.39 -27.38,-27.54 -52.39,-52.69 -80.01,-79.99l-179.15 -220.85c-54.03,-82.13 -103.65,-160.64 -148.89,-251.11 -45.2,-90.41 -59.81,-138.75 -94.44,-225.56 -16,-40.11 -25.64,-80.39 -37.85,-122.15 -32.07,-109.75 -46.42,-223.88 -61.22,-338.78 -5.14,-39.89 -4.39,-78.5 -8.09,-111.91l-6.19 -73.81c-0.69,-12.84 0.89,-27.07 -0.16,-39.84l-9.83 -230.17c0.03,-25.5 1.37,-55.01 0.02,-80.02 -0.72,-13.28 -2.83,-17.29 -3.35,-30.53z"/>
   <path class="fil5" d="M10760.58 11682.86c12.26,97.13 46.24,174.45 101.67,246.34 7.22,9.37 19.26,23.41 26.44,30.24 11.07,10.55 16.9,19.48 27.84,28.68 80.84,67.92 195.45,130.83 347.57,113.62 251.74,-28.48 445.05,-221.94 414.65,-505.54 -18.92,-176.45 -128.32,-350 -293.93,-402.91 -182.59,-58.33 -377.83,15.16 -507.89,144.74 -71.15,70.88 -134.94,197.51 -116.34,344.83z"/>
   <path class="fil5" d="M9051.94 11754.88l274.53 -5.61c13.62,-34.23 87.61,-192.09 110.77,-214.38 14.7,-14.15 16.17,-18.26 37.42,-29.38 57.29,-29.99 166.5,-33.23 224.7,-6.71 34.25,15.61 48.12,35.67 67.56,65.63 32.25,49.72 55.84,123.61 86.24,180.47l273.31 12.74c-4.15,-83.89 -12.39,-167.24 -40.17,-239.28 -48.3,-125.26 -138.14,-241.54 -264.38,-295.53 -151.41,-64.75 -306.01,-69.68 -457.95,2.15 -40.78,19.28 -74.79,41.92 -105.43,67.87 -7.8,6.6 -14.13,9.73 -20.65,16.11l-65.73 74.22c-77.96,101.08 -116.22,241.01 -120.2,371.71z"/>
  </g>
  <rect class="fil8" x="11460.13" y="10196.23" width="254.99" height="254.99"/>
  <rect class="fil8" x="11208.42" y="10448.08" width="254.99" height="254.99"/>
 </g>
</svg>
